<?xml version="1.0" standalone="no"?>
<!DOCTYPE svg PUBLIC "-//W3C//DTD SVG 20010904//EN"
 "http://www.w3.org/TR/2001/REC-SVG-20010904/DTD/svg10.dtd">
<svg version="1.0" xmlns="http://www.w3.org/2000/svg"
 width="512.000000pt" height="512.000000pt" viewBox="0 0 512.000000 512.000000"
 preserveAspectRatio="xMidYMid meet">
<metadata>
Created by potrace 1.11, written by Peter Selinger 2001-2013
</metadata>
<g transform="translate(0.000000,512.000000) scale(0.100000,-0.100000)"
fill="#000000" stroke="none">
<path d="M2461 5103 c-168 -61 -212 -293 -77 -411 l35 -31 3 -128 3 -128 115
0 115 0 3 128 c1 70 7 127 12 127 18 0 83 76 101 118 50 114 -3 256 -115 314
-53 27 -139 32 -195 11z"/>
<path d="M2505 4273 c-147 -10 -349 -51 -495 -101 -440 -150 -717 -483 -846
-1018 -25 -103 -27 -126 -31 -421 l-5 -312 -41 -6 c-115 -19 -232 -110 -285
-223 l-27 -57 -3 -577 -2 -577 -33 -23 c-73 -51 -107 -116 -107 -203 0 -71 23
-126 71 -174 135 -136 370 -65 409 123 6 30 8 70 5 89 -10 52 -61 135 -100
160 l-35 22 0 352 0 352 38 -13 c20 -7 53 -16 74 -20 l36 -7 5 -232 c4 -263
11 -296 81 -442 109 -228 310 -393 556 -458 84 -22 92 -22 790 -22 697 0 706
0 790 22 246 65 450 234 559 463 67 141 74 177 78 437 l5 232 36 7 c21 4 54
13 75 20 l37 13 0 -352 0 -352 -35 -22 c-39 -26 -83 -96 -97 -155 -22 -100 34
-211 131 -260 165 -84 351 31 351 217 0 87 -34 152 -107 203 l-33 23 -2 577
-3 577 -27 57 c-53 113 -170 204 -285 223 l-41 7 -4 306 c-4 295 -5 312 -32
427 -72 308 -195 544 -381 731 -138 138 -294 231 -500 297 -187 61 -435 100
-570 90z m293 -439 c111 -22 277 -79 352 -121 190 -106 297 -234 360 -431 70
-216 52 -399 -47 -498 -44 -44 -81 -62 -161 -80 -95 -20 -187 -17 -437 11
-121 14 -258 26 -305 26 -47 0 -184 -12 -305 -26 -255 -29 -350 -31 -445 -9
-119 27 -201 102 -230 213 -18 67 -14 205 9 291 63 245 172 388 381 502 112
62 298 119 443 138 95 12 288 4 385 -16z m137 -1704 c56 -57 34 -155 -43 -187
-74 -31 -155 25 -155 108 0 105 122 154 198 79z m260 24 c68 -32 83 -128 29
-185 -70 -74 -194 -24 -194 78 0 52 23 91 65 109 40 18 60 17 100 -2z m289 1
c110 -53 73 -219 -49 -219 -70 0 -115 48 -115 121 0 43 22 75 65 97 38 20 59
20 99 1z"/>
<path d="M1835 3241 c-48 -22 -69 -44 -90 -94 -59 -141 76 -294 219 -247 80
26 129 92 129 175 0 137 -133 223 -258 166z"/>
<path d="M3105 3243 c-95 -50 -130 -152 -86 -250 35 -77 135 -120 216 -93 50
17 101 64 116 107 43 131 -41 254 -174 253 -23 -1 -55 -8 -72 -17z"/>
<path d="M1950 418 c1 -36 89 -169 155 -234 172 -167 417 -224 644 -148 167
56 319 196 386 357 l15 37 -600 0 c-473 0 -600 -3 -600 -12z"/>
</g>
</svg>
